<svg width="34" height="36" viewBox="0 0 34 36" fill="none" xmlns="http://www.w3.org/2000/svg">
<path d="M31.1445 11.1978H16.7344L10.0273 0.828853C9.76172 0.331541 9.38542 0.0580197 8.89844 0.00828853C8.41146 -0.0414427 7.94661 0.132616 7.50391 0.530466C6.83984 1.32616 6.79557 2.12186 7.37109 2.91756L12.6172 11.1978H2.85547C2.05859 11.1978 1.38346 11.5086 0.830078 12.1303C0.276693 12.7519 0 13.4854 0 14.3309V15.972C0 17.3645 0.575521 18.3094 1.72656 18.8067L5.64453 32.3087C5.82161 33.0049 6.17578 33.639 6.70703 34.2109C7.23828 34.7828 7.83594 35.0688 8.5 35.0688H25.5C26.1641 35.0688 26.7617 34.7828 27.293 34.2109C27.8242 33.639 28.1784 33.0049 28.3555 32.3087L32.2734 18.9559C33.4245 18.4586 34 17.5137 34 16.1212V14.4801C34 13.5352 33.7233 12.7519 33.1699 12.1303C32.6165 11.5086 31.9414 11.1978 31.1445 11.1978ZM2.85547 14.3309H14.7422L15.7383 15.8228C15.8268 15.8228 15.8711 15.8725 15.8711 15.972H2.85547V14.3309ZM25.6328 31.4135V31.5627C25.6328 31.6125 25.6107 31.6622 25.5664 31.7119C25.5221 31.7616 25.5 31.8114 25.5 31.8611H8.63281C8.54427 31.8611 8.5 31.7616 8.5 31.5627L4.84766 19.1051H29.1523L25.6328 31.4135ZM18.2617 15.972C18.5716 15.3752 18.7266 14.8282 18.7266 14.3309H31.1445V15.972H18.2617ZM9.89453 29.0264C9.9388 29.3746 10.1159 29.6729 10.4258 29.9216C10.7357 30.1702 11.0456 30.2946 11.3555 30.2946H11.6211C11.9753 30.1951 12.263 29.9465 12.4844 29.5486C12.7057 29.1508 12.75 28.7529 12.6172 28.3551L11.2227 22.0143C11.1341 21.6165 10.9128 21.2932 10.5586 21.0446C10.2044 20.7959 9.85026 20.7462 9.49609 20.8954C9.14193 20.9948 8.85417 21.2435 8.63281 21.6414C8.41146 22.0392 8.36719 22.4122 8.5 22.7603L9.89453 29.0264ZM22.3789 30.2946H22.6445C22.9544 30.2946 23.2643 30.1702 23.5742 29.9216C23.8841 29.6729 24.0612 29.3746 24.1055 29.0264L25.5 22.6111C25.5885 22.2133 25.5332 21.8154 25.334 21.4176C25.1348 21.0197 24.8581 20.7959 24.5039 20.7462C23.5742 20.5473 22.9987 20.9202 22.7773 21.8651L21.3828 28.2059C21.1172 29.2005 21.4492 29.8967 22.3789 30.2946ZM17 30.2946C17.9297 30.2946 18.3945 29.7475 18.3945 28.6534V22.3127C18.3945 21.2684 17.9297 20.7462 17 20.7462C16.0703 20.7462 15.6055 21.2684 15.6055 22.3127V28.6534C15.6055 29.7475 16.0703 30.2946 17 30.2946Z" fill="black"/>
</svg>
