<svg width="27" height="36" viewBox="0 0 27 36" fill="none" xmlns="http://www.w3.org/2000/svg">
<path d="M26.4453 7.10938C26.4453 8.29688 26.2109 9.47656 25.7422 10.6484C25.2734 11.8203 24.6406 12.9062 23.8438 13.9062C23.0625 14.9062 22.1562 15.7812 21.125 16.5312C20.0938 17.2812 19.0234 17.8203 17.9141 18.1484L17.4219 17.3281C18.0781 17 18.6797 16.5781 19.2266 16.0625C19.7734 15.5469 20.2422 14.9688 20.6328 14.3281C21.0234 13.6719 21.3203 12.9844 21.5234 12.2656C21.7422 11.5312 21.8516 10.7891 21.8516 10.0391C21.8516 9.17969 21.7266 8.36719 21.4766 7.60156C21.2266 6.83594 20.8594 6.17188 20.375 5.60938C19.8906 5.03125 19.2891 4.57812 18.5703 4.25C17.8672 3.92188 17.0547 3.75781 16.1328 3.75781C15.0078 3.75781 13.9766 3.97656 13.0391 4.41406C12.1016 4.85156 11.2578 5.44531 10.5078 6.19531C9.75781 6.92969 9.10156 7.78125 8.53906 8.75C7.99219 9.70312 7.53125 10.7109 7.15625 11.7734C6.79688 12.8203 6.52344 13.8828 6.33594 14.9609C6.14844 16.0391 6.05469 17.0547 6.05469 18.0078C6.05469 18.9766 6.15625 19.9766 6.35938 21.0078C6.5625 22.0391 6.85938 23.0547 7.25 24.0547C7.64062 25.0547 8.125 26 8.70312 26.8906C9.28125 27.7812 9.94531 28.5625 10.6953 29.2344C11.4609 29.9062 12.3047 30.4453 13.2266 30.8516C14.1641 31.2422 15.1797 31.4375 16.2734 31.4375C17.0234 31.4375 17.75 31.3359 18.4531 31.1328C19.1719 30.9297 19.8594 30.6562 20.5156 30.3125C21.1719 29.9688 21.7891 29.5625 22.3672 29.0938C22.9609 28.625 23.5078 28.1172 24.0078 27.5703L24.7812 28.3203C24.0938 29.2266 23.2734 30.1016 22.3203 30.9453C21.3828 31.7734 20.3672 32.5156 19.2734 33.1719C18.1797 33.8125 17.0312 34.3281 15.8281 34.7188C14.6406 35.0938 13.4609 35.2812 12.2891 35.2812C11.1484 35.2812 10.0703 35.0859 9.05469 34.6953C8.05469 34.2891 7.13281 33.75 6.28906 33.0781C5.44531 32.3906 4.6875 31.5938 4.01562 30.6875C3.35938 29.7656 2.79688 28.7891 2.32812 27.7578C1.875 26.7266 1.52344 25.6641 1.27344 24.5703C1.03906 23.4766 0.921875 22.4062 0.921875 21.3594C0.921875 19.8438 1.17188 18.2891 1.67188 16.6953C2.1875 15.0859 2.89062 13.5312 3.78125 12.0312C4.67188 10.5156 5.71875 9.08594 6.92188 7.74219C8.14062 6.39844 9.44531 5.22656 10.8359 4.22656C12.2422 3.22656 13.7031 2.4375 15.2188 1.85938C16.75 1.26563 18.2734 0.96875 19.7891 0.96875C20.7266 0.96875 21.6016 1.10938 22.4141 1.39062C23.2266 1.65625 23.9297 2.04688 24.5234 2.5625C25.1172 3.07812 25.5859 3.71875 25.9297 4.48438C26.2734 5.25 26.4453 6.125 26.4453 7.10938Z" fill="black"/>
</svg>
