<svg width="28" height="28" viewBox="0 0 28 28" fill="none" xmlns="http://www.w3.org/2000/svg">
<path d="M14 0C6.26875 0 0 6.26875 0 14C0 21.7312 6.26875 28 14 28C21.7312 28 28 21.7312 28 14C28 6.26875 21.7312 0 14 0ZM14 25.625C7.58125 25.625 2.375 20.4187 2.375 14C2.375 7.58125 7.58125 2.375 14 2.375C20.4187 2.375 25.625 7.58125 25.625 14C25.625 20.4187 20.4187 25.625 14 25.625Z" fill="black"/>
<path d="M17.4875 7.89688C16.55 7.075 15.3125 6.625 14 6.625C12.6875 6.625 11.45 7.07813 10.5125 7.89688C9.5375 8.75 9 9.89688 9 11.125V11.3625C9 11.5 9.1125 11.6125 9.25 11.6125H10.75C10.8875 11.6125 11 11.5 11 11.3625V11.125C11 9.74688 12.3469 8.625 14 8.625C15.6531 8.625 17 9.74688 17 11.125C17 12.0969 16.3125 12.9875 15.2469 13.3969C14.5844 13.65 14.0219 14.0937 13.6187 14.675C13.2094 15.2687 12.9969 15.9812 12.9969 16.7031V17.375C12.9969 17.5125 13.1094 17.625 13.2469 17.625H14.7469C14.8844 17.625 14.9969 17.5125 14.9969 17.375V16.6656C14.9985 16.3623 15.0915 16.0664 15.2637 15.8167C15.436 15.5669 15.6795 15.3749 15.9625 15.2656C17.8062 14.5562 18.9969 12.9312 18.9969 11.125C19 9.89688 18.4625 8.75 17.4875 7.89688ZM12.75 20.875C12.75 21.2065 12.8817 21.5245 13.1161 21.7589C13.3505 21.9933 13.6685 22.125 14 22.125C14.3315 22.125 14.6495 21.9933 14.8839 21.7589C15.1183 21.5245 15.25 21.2065 15.25 20.875C15.25 20.5435 15.1183 20.2255 14.8839 19.9911C14.6495 19.7567 14.3315 19.625 14 19.625C13.6685 19.625 13.3505 19.7567 13.1161 19.9911C12.8817 20.2255 12.75 20.5435 12.75 20.875Z" fill="black"/>
</svg>
